<?xml version="1.0" encoding="UTF-8" standalone="no"?>
<svg
   viewBox="0 0 135.64589 26.666142"
   version="1.1"
   id="svg12"
   sodipodi:docname="logo.svg"
   width="135.64589"
   height="26.666142"
   inkscape:version="1.4.3 (0d15f75, 2025-12-25)"
   xmlns:inkscape="http://www.inkscape.org/namespaces/inkscape"
   xmlns:sodipodi="http://sodipodi.sourceforge.net/DTD/sodipodi-0.dtd"
   xmlns="http://www.w3.org/2000/svg"
   xmlns:svg="http://www.w3.org/2000/svg">
  <defs
     id="defs12" />
  <sodipodi:namedview
     id="namedview12"
     pagecolor="#ffffff"
     bordercolor="#000000"
     borderopacity="0.25"
     inkscape:showpageshadow="2"
     inkscape:pageopacity="0.0"
     inkscape:pagecheckerboard="0"
     inkscape:deskcolor="#d1d1d1"
     inkscape:zoom="3.7229172"
     inkscape:cx="39.619468"
     inkscape:cy="20.548402"
     inkscape:window-width="2160"
     inkscape:window-height="1334"
     inkscape:window-x="-11"
     inkscape:window-y="-11"
     inkscape:window-maximized="1"
     inkscape:current-layer="svg12" />
  <g
     id="g12"
     transform="translate(-21.070105,-36.66803)">
    <path
       d="M 41.419,48.371 A 3.656,3.656 0 0 0 40.373,51.3 l -0.018,-0.018 a 4.344,4.344 0 0 1 -4.694,4.694 l 0.018,0.018 A 3.678,3.678 0 1 0 39,59.312 l 0.019,0.018 a 4.344,4.344 0 0 1 4.694,-4.694 l -0.019,-0.018 a 3.671,3.671 0 1 0 -2.272,-6.247 z"
       fill="#394149"
       id="path1" />
    <path
       d="M 34.042,53.636 34.023,53.618 A 3.631,3.631 0 0 0 38,49.644 l 0.019,0.018 a 4.344,4.344 0 0 1 4.694,-4.694 L 42.694,44.95 a 3.678,3.678 0 1 0 -3.318,-3.318 l -0.018,-0.019 a 4.343,4.343 0 0 1 -4.694,4.694 l 0.018,0.019 A 3.631,3.631 0 0 0 30.705,50.3 l -0.018,-0.018 a 4.345,4.345 0 0 1 -4.694,4.694 l 0.018,0.018 a 3.678,3.678 0 1 0 3.318,3.318 l 0.019,0.018 a 4.344,4.344 0 0 1 4.694,-4.694 z"
       fill="#394149"
       id="path2" />
    <path
       d="M 27.34,51.629 A 3.652,3.652 0 0 0 28.385,48.7 l 0.019,0.018 A 4.344,4.344 0 0 1 33.1,44.024 L 33.081,44.006 A 3.677,3.677 0 1 0 29.763,40.688 L 29.745,40.67 a 4.344,4.344 0 0 1 -4.694,4.694 l 0.018,0.018 a 3.671,3.671 0 1 0 2.273,6.247 z"
       fill="#394149"
       id="path3" />
    <path
       d="m 58.317,41.655 h 2.97 v 14.453 h -2.97 z"
       fill="#394149"
       id="path4" />
    <path
       d="m 62.969,51.159 a 5.247,5.247 0 1 1 5.247,5.226 5.188,5.188 0 0 1 -5.247,-5.226 z m 7.524,0 a 2.278,2.278 0 1 0 -2.277,2.341 2.221,2.221 0 0 0 2.277,-2.341 z"
       fill="#394149"
       id="path5" />
    <path
       d="m 85.3,46.209 v 9.4 c 0,3.326 -2.594,4.732 -5.227,4.732 a 5.062,5.062 0 0 1 -4.692,-2.4 l 2.534,-1.465 a 2.262,2.262 0 0 0 2.257,1.247 1.973,1.973 0 0 0 2.237,-2.118 V 54.7 a 3.516,3.516 0 0 1 -2.891,1.287 5.031,5.031 0 0 1 0,-10.057 3.516,3.516 0 0 1 2.891,1.287 v -1.01 z m -2.89,4.751 a 2.4,2.4 0 1 0 -2.395,2.3 2.24,2.24 0 0 0 2.395,-2.3 z"
       fill="#394149"
       id="path6" />
    <path
       d="m 86.982,51.159 a 5.247,5.247 0 1 1 5.247,5.226 5.188,5.188 0 0 1 -5.247,-5.226 z m 7.524,0 a 2.278,2.278 0 1 0 -2.277,2.341 2.221,2.221 0 0 0 2.277,-2.341 z"
       fill="#394149"
       id="path7" />
    <path
       d="m 98.861,43.556 a 1.782,1.782 0 1 1 1.782,1.782 1.8,1.8 0 0 1 -1.782,-1.782 z m 0.3,2.653 h 2.971 v 9.9 h -2.975 z"
       fill="#394149"
       id="path8" />
    <path
       d="m 114.956,51.159 a 4.971,4.971 0 0 1 -4.732,5.226 3.715,3.715 0 0 1 -2.949,-1.208 v 4.891 h -2.97 V 46.209 h 2.97 v 0.93 a 3.717,3.717 0 0 1 2.949,-1.207 4.97,4.97 0 0 1 4.732,5.227 z m -2.97,0 a 2.356,2.356 0 1 0 -2.355,2.415 2.26,2.26 0 0 0 2.355,-2.415 z"
       fill="#394149"
       id="path9" />
    <path
       d="m 124.121,53.138 c 0,2.277 -1.979,3.247 -4.117,3.247 a 4.335,4.335 0 0 1 -4.257,-2.356 l 2.573,-1.465 a 1.627,1.627 0 0 0 1.68,1.168 c 0.712,0 1.069,-0.218 1.069,-0.613 0,-1.09 -4.871,-0.515 -4.871,-3.94 0,-2.159 1.822,-3.247 3.881,-3.247 a 4.329,4.329 0 0 1 3.86,2.118 l -2.534,1.366 a 1.437,1.437 0 0 0 -1.326,-0.871 c -0.515,0 -0.832,0.2 -0.832,0.554 0.004,1.129 4.874,0.376 4.874,4.039 z"
       fill="#394149"
       id="path10" />
    <path
       d="m 134.97,46.209 v 9.9 H 132 v -0.931 a 3.382,3.382 0 0 1 -2.83,1.208 c -2,0 -3.7,-1.425 -3.7,-4.1 v -6.077 h 2.97 v 5.642 a 1.632,1.632 0 0 0 1.722,1.8 c 1.089,0 1.841,-0.633 1.841,-2.039 v -5.4 z"
       fill="#394149"
       id="path11" />
    <path
       d="m 152,50.03 v 6.078 h -2.97 v -5.821 c 0,-0.99 -0.475,-1.623 -1.425,-1.623 -0.99,0 -1.545,0.693 -1.545,1.861 v 5.583 h -2.969 v -5.821 c 0,-0.99 -0.475,-1.623 -1.426,-1.623 -0.99,0 -1.544,0.693 -1.544,1.861 v 5.583 h -2.97 v -9.9 h 2.97 v 0.91 a 3.039,3.039 0 0 1 2.653,-1.187 2.945,2.945 0 0 1 2.593,1.306 3.262,3.262 0 0 1 2.871,-1.306 c 2.273,0.001 3.762,1.624 3.762,4.099 z"
       fill="#394149"
       id="path12" />
    <circle
       cx="154.51199"
       cy="43.944"
       r="2.204"
       fill="#394149"
       id="circle12" />
  </g>
</svg>
